<svg width="100%" height="100%" id="svg" viewBox="0 0 1440 690" xmlns="http://www.w3.org/2000/svg" class="transition duration-300 ease-in-out delay-150"><defs><linearGradient id="gradient" x1="72%" y1="95%" x2="28%" y2="5%"><stop offset="5%" stop-color="#fc454a"></stop><stop offset="95%" stop-color="#ecf0f1"></stop></linearGradient></defs><path d="M 0,700 C 0,700 0,233 0,233 C 144.8,192.33333333333334 289.6,151.66666666666669 430,155 C 570.4,158.33333333333331 706.4000000000001,205.66666666666666 874,226 C 1041.6,246.33333333333334 1240.8,239.66666666666669 1440,233 C 1440,233 1440,700 1440,700 Z" stroke="none" stroke-width="0" fill="url(#gradient)" fill-opacity="0.53" class="transition-all duration-300 ease-in-out delay-150 path-0"></path><defs><linearGradient id="gradient" x1="72%" y1="95%" x2="28%" y2="5%"><stop offset="5%" stop-color="#fc454a"></stop><stop offset="95%" stop-color="#ecf0f1"></stop></linearGradient></defs><path d="M 0,700 C 0,700 0,466 0,466 C 146.2666666666667,478.6666666666667 292.5333333333334,491.33333333333337 461,475 C 629.4666666666666,458.66666666666663 820.1333333333332,413.3333333333333 987,407 C 1153.8666666666668,400.6666666666667 1296.9333333333334,433.33333333333337 1440,466 C 1440,466 1440,700 1440,700 Z" stroke="none" stroke-width="0" fill="url(#gradient)" fill-opacity="1" class="transition-all duration-300 ease-in-out delay-150 path-1"></path></svg>